<?xml version="1.0" encoding="utf-8"?>
<!-- Generator: Adobe Illustrator 26.0.3, SVG Export Plug-In . SVG Version: 6.00 Build 0)  -->
<svg version="1.0" id="Layer_1" xmlns="http://www.w3.org/2000/svg" xmlns:xlink="http://www.w3.org/1999/xlink" x="0px" y="0px"
	 viewBox="0 0 1045.3 832" style="enable-background:new 0 0 1045.3 832;" xml:space="preserve">
<style type="text/css">
	.st0{fill:#754BFE;}
	.st1{fill:#C3B1FE;}
	.st2{fill:#C8B8FE;}
	.st3{fill:#FEFEFE;}
	.st4{fill:#6345BB;}
	.st5{fill:#FDFDFE;}
	.st6{fill:#FBFBFD;}
	.st7{fill:none;}
</style>
<path class="st0" d="M543,738.9h-42.8c-0.7-1.2-1.9-0.7-2.8-0.7c-14.8-1.2-29.4-3.4-43.9-6.6c-68.9-15.6-126.9-49.7-173.3-102.9
	c-49.8-57.1-76.1-123.8-79.5-199.6v-25.6c0.6-18.3,2.9-36.4,6.7-54.3c14.2-65.5,45.3-121.7,94.2-167.6
	c58.1-54.6,127.2-83.7,206.9-87.9h29.8c44.6,1.9,88.2,13.1,128.2,33.1c53.2,26.4,95.9,64.7,128.2,114.6
	c26.1,40.2,42.8,85.9,48.7,133.5c0.6,5,0.7,10,1.9,14.9v53.8c-0.8,0.6-0.6,1.4-0.7,2.2c-1.2,14.2-3.4,28.3-6.6,42.2
	c-20.1,84.5-66.3,150.7-138.6,198.8c-42.1,28-88.7,44.4-139,50.2C554.6,737.7,548.7,737.6,543,738.9z M219.3,416.2
	c-0.2,166.1,133.4,301.7,299.5,304c168.8,2.4,307.2-132.8,308.3-301.8c1.1-170.9-136.2-303.4-298.3-306.2
	C358.9,109.2,219,246.4,219.3,416.2z"/>
<path class="st1" d="M538.2,93.1c-0.1,0.2-0.1,0.4,0,0.6h-29.8c0.1-0.2,0.1-0.4,0.1-0.6L538.2,93.1z"/>
<path class="st2" d="M200.7,429.1c-0.2,0-0.4,0-0.6,0v-25.6c0.2,0,0.4-0.1,0.6,0L200.7,429.1z"/>
<path class="st3" d="M219.3,416.2c-0.3-169.9,139.6-307,309.5-304c162.1,2.9,299.4,135.4,298.3,306.3
	C826,587.5,687.6,722.7,518.8,720.3C352.8,717.9,219.1,582.3,219.3,416.2z M623.4,436.5c0,14.8,0,29.7,0,44.5c0,4.2,1.3,5.3,5.5,4.4
	c2.5-0.6,4.8-1.5,7-2.8c4-2.1,6-5.1,5.9-10c-0.3-15.4-0.1-30.8-0.1-46.2c0-12,11.7-21.4,23.5-19.2c10.4,2,17,10.1,17.1,21.1
	c0,12.9,0,25.8,0,38.6c-0.2,2.3,0.6,4.6,2,6.4c2.4,2.8,6.2,3.9,9.7,2.7c3.8-1.3,6-4.3,6-8.7c0.1-12.6,0-25.3,0-37.9
	c-0.1-2.4,0.2-4.8,0.7-7.2c2.6-9.9,12.3-16.5,22.1-15.1c10.8,1.6,18,10.6,17.8,21.9c-0.2,15-0.2,30.1-0.2,45.2
	c-0.1,2.5,0.9,4.8,2.8,6.4c3.1,2.6,6.9,4.3,10.8,5c3.4,0.6,4.7-0.5,4.7-4c0-17.9,0.1-35.9,0-53.8c-0.1-11.6-4.2-21.6-13.1-29.3
	c-15.7-13.6-37.9-12.8-52.8,1.8c-1.1,1-1.6,2.1-3.4,0.5c-14.2-13.4-30.4-15.5-47.7-6.2c-1.3,0.7-2.1,1.1-3.1-0.4
	c-2.5-3.8-6.3-5.5-10.7-6c-4.1-0.5-4.7-0.1-4.7,4C623.4,406.9,623.4,421.7,623.4,436.5L623.4,436.5z M305.8,401.1v-32.6
	c0-10.5-4.3-17-14.1-20.9c-3.7-1.5-4.1-1.2-4.1,2.7c0,29.9,0.1,59.8,0,89.7c-0.1,13.1,5,24,14.4,32.7c15.5,14.5,39.6,16.9,57.9,6.1
	c18.7-10.7,28-32.6,22.8-53.5c-6.3-26.5-35.1-42.9-60-34.2C316.7,393.4,311.4,396.7,305.8,401.1z M454,446.2c10.6,0,21.1,0,31.7,0
	c6.2,0,9.9-3.8,9.8-9.9c-0.3-30.6-29.5-53.5-59.2-46.1c-19.2,4.8-31.7,17.1-35.9,36.4s1.5,35.9,17,48.2s33.2,13.7,51.3,5.8
	c7.5-3.3,13.6-8.5,16.5-16.7c0.8-2.2,0.9-4.5-1-6.1s-4.1-0.8-6.1,0.3c-0.4,0.2-0.8,0.4-1.2,0.7c-8.4,5.7-17.8,8.1-27.9,8.5
	c-12.4,0.4-23.8-6.5-29.1-17.8c-1.2-2.5-1.1-3.5,2.1-3.5C432.6,446.4,443.3,446.2,454,446.2z M605,458.5c0-6.5,0-13.1,0-19.6
	c0.1-15.6-6-28.4-17.4-38.6c-15.9-14.3-41-15.1-59.3-2c-18.2,13.2-24.9,37.3-16.2,58.1c12,28,45.2,37.7,71.8,20.9
	c2.4-1.5,3.4-1.2,4.7,1c2.8,4.8,6.8,7.6,12.6,7.6c2.7,0,3.9-0.9,3.9-3.8C604.9,474.1,605,466.3,605,458.5L605,458.5z"/>
<path class="st4" d="M623.4,436.5c0-14.8,0-29.6,0-44.5c0-4.1,0.6-4.5,4.7-4c4.4,0.6,8.2,2.2,10.7,6c1,1.5,1.8,1.1,3.1,0.4
	c17.2-9.3,33.5-7.2,47.7,6.2c1.8,1.7,2.3,0.6,3.4-0.5c14.9-14.6,37.1-15.4,52.8-1.8c8.8,7.7,13,17.7,13.1,29.3
	c0.2,17.9,0,35.9,0,53.8c0,3.4-1.3,4.5-4.7,4c-4-0.7-7.7-2.4-10.8-5c-1.9-1.6-3-3.9-2.8-6.4c0.1-15.1,0-30.1,0.2-45.2
	c0.2-11.3-7-20.3-17.8-21.9c-9.8-1.4-19.5,5.2-22.1,15.1c-0.6,2.3-0.8,4.8-0.7,7.2c0,12.6,0,25.3,0,37.9c0,4.4-2.2,7.4-6,8.7
	c-3.5,1.2-7.3,0.2-9.7-2.7c-1.4-1.8-2.2-4.1-2-6.4c0-12.9,0-25.8,0-38.6c0-11-6.7-19.1-17.1-21.1c-11.8-2.2-23.4,7.2-23.5,19.2
	c-0.1,15.4-0.2,30.8,0.1,46.2c0.1,4.9-1.9,7.8-5.9,10c-2.2,1.3-4.5,2.2-7,2.8c-4.2,0.9-5.5-0.2-5.5-4.4
	C623.4,466.2,623.4,451.4,623.4,436.5z"/>
<path class="st4" d="M305.8,401.1c5.6-4.4,11-7.8,17-9.9c25-8.7,53.7,7.7,60,34.2c5.2,20.9-4.1,42.8-22.8,53.5
	c-18.3,10.8-42.5,8.4-57.9-6.1c-9.4-8.8-14.5-19.6-14.4-32.7c0.1-29.9,0-59.8,0-89.7c0-4,0.4-4.2,4.1-2.7c9.8,4,14.1,10.4,14.1,20.9
	L305.8,401.1z M365.9,437.3c0.1-16.6-13.3-30.2-29.9-30.2c-16.6-0.1-30.2,13.3-30.2,29.9c-0.1,16.6,13.3,30.2,29.9,30.2
	c0.1,0,0.1,0,0.2,0C352.4,467.1,365.8,453.8,365.9,437.3z"/>
<path class="st4" d="M454,446.2c-10.7,0-21.4,0.1-32.1-0.1c-3.3,0-3.3,0.9-2.1,3.5c5.3,11.2,16.7,18.2,29.1,17.8
	c10.1-0.4,19.5-2.8,27.9-8.5c0.4-0.3,0.8-0.5,1.2-0.7c2-1,4.2-1.9,6.1-0.3s1.7,3.9,1,6.1c-2.8,8.2-9,13.4-16.5,16.7
	c-18.1,7.9-35.6,6.6-51.3-5.8s-21.3-29-17-48.2s16.7-31.6,35.9-36.4c29.8-7.4,58.9,15.5,59.2,46.1c0.1,6.1-3.6,9.9-9.8,9.9
	C475.1,446.3,464.6,446.2,454,446.2z M475.7,428.3c0-0.4,0-0.8,0-1.2c-3.3-10.9-15.2-19.8-26.8-20.1c-13.5-0.3-25.5,7.4-29.7,18.9
	c-0.7,1.9-0.3,2.4,1.6,2.4c6.2-0.1,12.4,0,18.6,0L475.7,428.3z"/>
<path class="st4" d="M605,458.5c0,7.8-0.1,15.6,0,23.4c0.1,2.9-1.2,3.8-3.9,3.8c-5.8,0.1-9.8-2.7-12.6-7.6c-1.3-2.3-2.3-2.5-4.7-1
	c-26.5,16.8-59.8,7.1-71.8-20.9c-8.8-20.8-2.1-44.8,16.2-58.1c18.3-13.1,43.4-12.4,59.3,2c11.4,10.3,17.5,23.1,17.4,38.6
	C605,445.4,605,451.9,605,458.5z M586.6,437.2c-0.1-16.5-13.7-30.1-30.1-30c-16.6,0.1-30.1,13.6-30,30.3c0.1,16.6,13.6,30.1,30.3,30
	C573.4,467.3,586.7,453.7,586.6,437.2z"/>
<path class="st5" d="M365.9,437.3c-0.1,16.6-13.6,30-30.3,29.9s-30-13.6-29.9-30.3s13.6-30,30.3-29.9c0,0,0,0,0,0
	c16.6,0.1,29.9,13.6,29.9,30.1C365.9,437.2,365.9,437.2,365.9,437.3z"/>
<path class="st6" d="M475.7,428.3h-36.2c-6.2,0-12.4,0-18.6,0c-2,0-2.3-0.5-1.6-2.4c4.2-11.5,16.2-19.2,29.7-18.9
	c11.5,0.3,23.5,9.2,26.8,20.1C475.8,427.5,475.8,427.9,475.7,428.3z"/>
<path class="st5" d="M586.6,437.2c0,16.6-13.4,30.1-30,30.1c-16.6,0-30.1-13.4-30.1-30c0.2-16.5,13.5-29.9,30.1-30.1
	C572.9,407,586.5,420.6,586.6,437.2z"/>
<rect x="168.7" y="62" class="st7" width="708" height="708"/>
</svg>
